Gemunu-sinhala-1-opt.ufo
<glyph name="anusvara" format="1">
  <advance width="417"/>
  <unicode hex="0D82"/>
  <outline>
    <contour>
      <point x="76" y="18" type="line" smooth="yes"/>
      <point x="42.0589" y="18"/>
      <point x="22" y="32.9844"/>
      <point x="22" y="69" type="curve" smooth="yes"/>
      <point x="22" y="389" type="line" smooth="yes"/>
      <point x="22" y="420.569"/>
      <point x="39.854" y="446"/>
      <point x="84" y="446" type="curve" smooth="yes"/>
      <point x="331" y="446" type="line" smooth="yes"/>
      <point x="374.248" y="446"/>
      <point x="386.004" y="422.026"/>
      <point x="386.004" y="388" type="curve" smooth="yes"/>
      <point x="386.004" y="73" type="line" smooth="yes"/>
      <point x="386.004" y="38.0472"/>
      <point x="372.677" y="18"/>
      <point x="330" y="18" type="curve" smooth="yes"/>
    </contour>
    <contour>
      <point x="146" y="324.398" type="curve" smooth="yes"/>
      <point x="146" y="144" type="line" smooth="yes"/>
      <point x="146" y="131.333"/>
      <point x="151.264" y="125"/>
      <point x="168.597" y="125" type="curve" smooth="yes"/>
      <point x="241.201" y="125" type="line" smooth="yes"/>
      <point x="255.867" y="125"/>
      <point x="262" y="131.115"/>
      <point x="262" y="145.395" type="curve" smooth="yes"/>
      <point x="262" y="324.399" type="line" smooth="yes"/>
      <point x="262" y="338.243"/>
      <point x="258" y="344"/>
      <point x="240" y="344" type="curve" smooth="yes"/>
      <point x="167" y="344" type="line" smooth="yes"/>
      <point x="153" y="344"/>
      <point x="146" y="336.398"/>
    </contour>
  </outline>
</glyph>
<glyph name="si_E" format="1">
  <advance width="534"/>
  <unicode hex="0D91"/>
  <outline>
    <contour>
      <point x="241.217" y="576" type="line"/>
      <point x="241.217" y="527.199" type="line" smooth="yes"/>
      <point x="241.217" y="508.791"/>
      <point x="248.619" y="508.614"/>
      <point x="263" y="508.614" type="curve" smooth="yes"/>
      <point x="377.198" y="508.614" type="line"/>
      <point x="377.198" y="511.211" type="line" smooth="yes"/>
      <point x="377.198" y="519.211"/>
      <point x="367.985" y="522.988"/>
      <point x="361" y="526" type="curve" smooth="yes"/>
      <point x="361" y="526"/>
      <point x="294.966" y="554.586"/>
      <point x="252" y="573" type="curve" smooth="yes"/>
      <point x="249.296" y="574.166"/>
      <point x="245.026" y="576"/>
      <point x="243.198" y="576" type="curve" smooth="yes"/>
    </contour>
    <contour>
      <point x="504" y="494" type="curve" smooth="yes"/>
      <point x="504" y="51" type="line" smooth="yes"/>
      <point x="504" y="19.9499"/>
      <point x="486.854" y="-3.53366e-15"/>
      <point x="458" y="0" type="curve" smooth="yes"/>
      <point x="86" y="0" type="line" smooth="yes"/>
      <point x="56.432" y="0"/>
      <point x="38" y="13.2377"/>
      <point x="38" y="44" type="curve" smooth="yes"/>
      <point x="38" y="145" type="line" smooth="yes"/>
      <point x="38" y="175.599"/>
      <point x="51.5352" y="188.864"/>
      <point x="64.2021" y="196.197" type="curve"/>
      <point x="4" y="196.197" type="line"/>
      <point x="4" y="286.795" type="line"/>
      <point x="184.998" y="286.795" type="line"/>
      <point x="184.998" y="308" type="line" smooth="yes"/>
      <point x="184.998" y="314.656"/>
      <point x="179.64" y="319"/>
      <point x="170.998" y="319" type="curve" smooth="yes"/>
      <point x="41" y="319" type="line"/>
      <point x="41" y="407" type="line"/>
      <point x="249" y="407" type="line" smooth="yes"/>
      <point x="289.939" y="407"/>
      <point x="309" y="384.43"/>
      <point x="309" y="346" type="curve" smooth="yes"/>
      <point x="309" y="189.799" type="line"/>
      <point x="201" y="189.799" type="line" smooth="yes"/>
      <point x="174.971" y="189.799"/>
      <point x="162.002" y="177.919"/>
      <point x="162.002" y="159" type="curve" smooth="yes"/>
      <point x="162.002" y="130" type="line" smooth="yes"/>
      <point x="162.002" y="113.813"/>
      <point x="165.731" y="107"/>
      <point x="186.398" y="107" type="curve" smooth="yes"/>
      <point x="360.198" y="107" type="line" smooth="yes"/>
      <point x="372.865" y="107"/>
      <point x="379.198" y="113.667"/>
      <point x="379.198" y="127" type="curve" smooth="yes"/>
      <point x="379.198" y="439.614" type="line"/>
      <point x="177" y="439.614" type="line" smooth="yes"/>
      <point x="143.708" y="439.614"/>
      <point x="131.217" y="450.586"/>
      <point x="131.217" y="487" type="curve" smooth="yes"/>
      <point x="131.217" y="577" type="line"/>
      <point x="80.2168" y="577" type="line"/>
      <point x="80.2168" y="664" type="line"/>
      <point x="203" y="664" type="line" smooth="yes"/>
      <point x="234.19" y="664"/>
      <point x="245.697" y="663.544"/>
      <point x="288" y="645" type="curve" smooth="yes"/>
      <point x="288.476" y="644.894"/>
      <point x="434" y="581"/>
      <point x="434" y="581" type="curve" smooth="yes"/>
      <point x="470.407" y="565.041"/>
      <point x="504" y="545.567"/>
    </contour>
  </outline>
</glyph>
<glyph name="si_Gha" format="1">
  <advance width="564"/>
  <unicode hex="0D9D"/>
  <outline>
    <contour>
      <point x="330.95" y="0" type="line" smooth="yes"/>
      <point x="302.2" y="0"/>
      <point x="278.95" y="20.8428"/>
      <point x="278.95" y="47" type="curve" smooth="yes"/>
      <point x="278.95" y="131.199" type="line" smooth="yes"/>
      <point x="278.95" y="139.492"/>
      <point x="286.789" y="143.436"/>
      <point x="294.083" y="148" type="curve" smooth="yes"/>
      <point x="300.326" y="151.906"/>
      <point x="306.17" y="156.269"/>
      <point x="306.357" y="164.201" type="curve" smooth="yes"/>
      <point x="306.351" y="172" type="line" smooth="yes"/>
      <point x="306.345" y="180.38"/>
      <point x="301.938" y="181.996"/>
      <point x="294.755" y="181.996" type="curve" smooth="yes"/>
      <point x="277.95" y="181.996" type="line"/>
      <point x="261.195" y="181.996" type="line" smooth="yes"/>
      <point x="255.41" y="181.996"/>
      <point x="249.606" y="180.38"/>
      <point x="249.6" y="172" type="curve" smooth="yes"/>
      <point x="249.593" y="164.201" type="line" smooth="yes"/>
      <point x="249.781" y="156.268"/>
      <point x="255.624" y="151.907"/>
      <point x="261.867" y="148" type="curve" smooth="yes"/>
      <point x="269.161" y="143.436"/>
      <point x="277" y="139.492"/>
      <point x="277" y="131.199" type="curve" smooth="yes"/>
      <point x="277" y="47" type="line" smooth="yes"/>
      <point x="277" y="20.8429"/>
      <point x="253.414" y="-3.47967e-15"/>
      <point x="225" y="0" type="curve" smooth="yes"/>
      <point x="72" y="0" type="line" smooth="yes"/>
      <point x="34.9277" y="0"/>
      <point x="22" y="16.273"/>
      <point x="22" y="54" type="curve" smooth="yes"/>
      <point x="22" y="218" type="line" smooth="yes"/>
      <point x="22" y="239.333"/>
      <point x="29.6667" y="253.667"/>
      <point x="45" y="261" type="curve"/>
      <point x="61.2198" y="283.302"/>
      <point x="40.8581" y="356"/>
      <point x="78" y="356" type="curve" smooth="yes"/>
      <point x="168.05" y="356" type="line"/>
      <point x="168.042" y="356.227"/>
      <point x="168" y="379"/>
      <point x="168" y="379" type="curve" smooth="yes"/>
      <point x="168" y="389"/>
      <point x="161.333" y="394"/>
      <point x="148" y="394" type="curve" smooth="yes"/>
      <point x="23" y="394" type="line"/>
      <point x="23" y="497" type="line"/>
      <point x="192" y="497" type="line" smooth="yes"/>
      <point x="230.669" y="497"/>
      <point x="264" y="480.766"/>
      <point x="264" y="443" type="curve" smooth="yes"/>
      <point x="264" y="253" type="line"/>
      <point x="169" y="253" type="line" smooth="yes"/>
      <point x="153.667" y="253"/>
      <point x="146" y="247.333"/>
      <point x="146" y="236" type="curve" smooth="yes"/>
      <point x="146" y="130" type="line" smooth="yes"/>
      <point x="146" y="114.667"/>
      <point x="152" y="107"/>
      <point x="164" y="107" type="curve" smooth="yes"/>
      <point x="196.801" y="107" type="line" smooth="yes"/>
      <point x="205.057" y="107"/>
      <point x="214.751" y="108.853"/>
      <point x="214.778" y="118.203" type="curve" smooth="yes"/>
      <point x="214.801" y="121.729" type="line" smooth="yes"/>
      <point x="214.801" y="130.158"/>
      <point x="207.909" y="133.604"/>
      <point x="200.349" y="137" type="curve" smooth="yes"/>
      <point x="191.166" y="141.126"/>
      <point x="180.997" y="145.178"/>
      <point x="180.997" y="158" type="curve" smooth="yes"/>
      <point x="180.997" y="198.996" type="line" smooth="yes"/>
      <point x="180.997" y="214.996"/>
      <point x="190.41" y="222.996"/>
      <point x="207.005" y="222.996" type="curve" smooth="yes"/>
      <point x="277.95" y="222.996" type="line"/>
      <point x="348.945" y="222.996" type="line" smooth="yes"/>
      <point x="364.672" y="222.996"/>
      <point x="374.953" y="214.996"/>
      <point x="374.953" y="198.996" type="curve" smooth="yes"/>
      <point x="374.953" y="158" type="line" smooth="yes"/>
      <point x="374.953" y="145.179"/>
      <point x="364.784" y="141.126"/>
      <point x="355.602" y="137" type="curve" smooth="yes"/>
      <point x="348.041" y="133.604"/>
      <point x="341.149" y="130.158"/>
      <point x="341.149" y="121.729" type="curve" smooth="yes"/>
      <point x="341.172" y="118.203" type="line" smooth="yes"/>
      <point x="341.199" y="108.853"/>
      <point x="351.2" y="107"/>
      <point x="359.149" y="107" type="curve" smooth="yes"/>
      <point x="392" y="107" type="line" smooth="yes"/>
      <point x="404" y="107"/>
      <point x="410" y="114.667"/>
      <point x="410" y="130" type="curve" smooth="yes"/>
      <point x="410" y="236" type="line" smooth="yes"/>
      <point x="410" y="247.333"/>
      <point x="402.333" y="253"/>
      <point x="387" y="253" type="curve" smooth="yes"/>
      <point x="292" y="253" type="line"/>
      <point x="291.999" y="443" type="line" smooth="yes"/>
      <point x="291.999" y="480.775"/>
      <point x="325.296" y="497"/>
      <point x="364" y="497" type="curve" smooth="yes"/>
      <point x="533" y="497" type="line"/>
      <point x="533" y="394" type="line"/>
      <point x="409" y="394" type="line" smooth="yes"/>
      <point x="395" y="394"/>
      <point x="388" y="389"/>
      <point x="388" y="379" type="curve" smooth="yes"/>
      <point x="388" y="356" type="line"/>
      <point x="470" y="356" type="line" smooth="yes"/>
      <point x="513.529" y="356"/>
      <point x="534" y="339.26"/>
      <point x="534" y="296" type="curve" smooth="yes"/>
      <point x="534" y="54" type="line" smooth="yes"/>
      <point x="534" y="16.2703"/>
      <point x="521" y="0"/>
      <point x="484" y="0" type="curve" smooth="yes"/>
    </contour>
    <contour>
      <point x="-6" y="355.996" type="line"/>
      <point x="88" y="355.996" type="line"/>
      <point x="88" y="258.996" type="line"/>
      <point x="-6" y="258.996" type="line"/>
    </contour>
  </outline>
</glyph>
<glyph name="si_Cha" format="1">
  <advance width="513"/>
  <unicode hex="0DA1"/>
  <outline>
    <contour>
      <point x="300" y="371" type="curve" smooth="yes"/>
      <point x="300.2" y="322.188" type="line" smooth="yes"/>
      <point x="300.255" y="308.856"/>
      <point x="307.534" y="301.988"/>
      <point x="322.2" y="301.988" type="curve" smooth="yes"/>
      <point x="344.2" y="301.988" type="line" smooth="yes"/>
      <point x="358.867" y="301.988"/>
      <point x="366.2" y="310.667"/>
      <point x="366.2" y="322" type="curve" smooth="yes"/>
      <point x="366" y="372.199" type="line" smooth="yes"/>
      <point x="365.942" y="386.866"/>
      <point x="359.334" y="394.199"/>
      <point x="346" y="394.199" type="curve" smooth="yes"/>
      <point x="320" y="394.199" type="line" smooth="yes"/>
      <point x="306.983" y="394.199"/>
      <point x="300" y="383.601"/>
    </contour>
    <contour>
      <point x="388" y="486" type="curve"/>
      <point x="250.999" y="486" type="line"/>
      <point x="268.016" y="496.523"/>
      <point x="275.291" y="495"/>
      <point x="305" y="533" type="curve" smooth="yes"/>
      <point x="391" y="643" type="line"/>
      <point x="524" y="643" type="line"/>
      <point x="439" y="524" type="line" smooth="yes"/>
      <point x="416.757" y="492.86"/>
      <point x="396.587" y="489.982"/>
    </contour>
    <contour>
      <point x="164" y="107" type="curve" smooth="yes"/>
      <point x="343" y="107" type="line" smooth="yes"/>
      <point x="355" y="107"/>
      <point x="361" y="114.375"/>
      <point x="361" y="129" type="curve" smooth="yes"/>
      <point x="361" y="183.811" type="line" smooth="yes"/>
      <point x="361" y="201.998"/>
      <point x="349.411" y="207.811"/>
      <point x="332" y="207.811" type="curve" smooth="yes"/>
      <point x="255.599" y="207.811" type="line" smooth="yes"/>
      <point x="229.371" y="207.811"/>
      <point x="217" y="227.493"/>
      <point x="217" y="254.811" type="curve" smooth="yes"/>
      <point x="216.999" y="419" type="line" smooth="yes"/>
      <point x="217" y="460"/>
      <point x="247.331" y="497"/>
      <point x="286" y="497" type="curve" smooth="yes"/>
      <point x="430" y="497" type="line" smooth="yes"/>
      <point x="465.206" y="497"/>
      <point x="484.998" y="476.309"/>
      <point x="485" y="436" type="curve" smooth="yes"/>
      <point x="485.004" y="332.2" type="line" smooth="yes"/>
      <point x="485" y="301"/>
      <point x="479.802" y="274.444"/>
      <point x="454" y="256.99" type="curve"/>
      <point x="479.011" y="241.293"/>
      <point x="485" y="219.553"/>
      <point x="485" y="181" type="curve" smooth="yes"/>
      <point x="485" y="54" type="line" smooth="yes"/>
      <point x="485" y="16.28"/>
      <point x="472.072" y="0"/>
      <point x="435" y="0" type="curve" smooth="yes"/>
      <point x="72" y="0" type="line" smooth="yes"/>
      <point x="34.9249" y="0"/>
      <point x="22" y="16.2703"/>
      <point x="22" y="54" type="curve" smooth="yes"/>
      <point x="22" y="300" type="line" smooth="yes"/>
      <point x="22" y="337.333"/>
      <point x="40.6797" y="354.999"/>
      <point x="78" y="354.999" type="curve" smooth="yes"/>
      <point x="170" y="355" type="line"/>
      <point x="170" y="379" type="line" smooth="yes"/>
      <point x="170" y="388"/>
      <point x="164.667" y="394.001"/>
      <point x="154" y="394.001" type="curve" smooth="yes"/>
      <point x="23" y="394" type="line"/>
      <point x="23" y="497" type="line"/>
      <point x="196" y="497" type="line" smooth="yes"/>
      <point x="234.656" y="497"/>
      <point x="259.807" y="479.785"/>
      <point x="259.807" y="438" type="curve" smooth="yes"/>
      <point x="259.807" y="253" type="line"/>
      <point x="167" y="253" type="line" smooth="yes"/>
      <point x="156.014" y="253"/>
      <point x="146" y="246.667"/>
      <point x="146" y="234" type="curve" smooth="yes"/>
      <point x="146" y="129" type="line" smooth="yes"/>
      <point x="146" y="114.333"/>
      <point x="152" y="107"/>
    </contour>
  </outline>
</glyph>
<glyph name="si_Ttha" format="1">
  <advance width="515"/>
  <unicode hex="0DA8"/>
  <outline>
    <contour>
      <point x="293.203" y="538" type="line"/>
      <point x="293.203" y="514.6" type="line" smooth="yes"/>
      <point x="293.203" y="496.191"/>
      <point x="300.605" y="496.015"/>
      <point x="314.986" y="496.015" type="curve" smooth="yes"/>
      <point x="359.2" y="496.015" type="line"/>
      <point x="359.201" y="522.001" type="line" smooth="yes"/>
      <point x="359.201" y="529.711"/>
      <point x="357.313" y="538"/>
      <point x="347.001" y="538" type="curve" smooth="yes"/>
    </contour>
    <contour>
      <point x="485.001" y="394" type="line"/>
      <point x="361.2" y="394" type="line"/>
      <point x="361.2" y="427.015" type="line"/>
      <point x="228.986" y="427.015" type="line" smooth="yes"/>
      <point x="195.694" y="427.015"/>
      <point x="183.203" y="437.986"/>
      <point x="183.203" y="474.4" type="curve" smooth="yes"/>
      <point x="183.203" y="539" type="line"/>
      <point x="137.809" y="539" type="line"/>
      <point x="137.809" y="626" type="line"/>
      <point x="419" y="626" type="line" smooth="yes"/>
      <point x="466.56" y="626"/>
      <point x="485.001" y="610.567"/>
      <point x="485.001" y="559" type="curve" smooth="yes"/>
    </contour>
    <contour>
      <point x="484.998" y="407" type="line"/>
      <point x="484.998" y="50" type="line" smooth="yes"/>
      <point x="484.998" y="19.6379"/>
      <point x="471.396" y="-4.08988e-15"/>
      <point x="438" y="0" type="curve" smooth="yes"/>
      <point x="301.803" y="0" type="line" smooth="yes"/>
      <point x="275.803" y="0"/>
      <point x="259.469" y="12.333"/>
      <point x="252.803" y="37" type="curve"/>
      <point x="249.629" y="16.3779"/>
      <point x="229.072" y="0"/>
      <point x="205.803" y="0" type="curve" smooth="yes"/>
      <point x="69" y="0" type="line" smooth="yes"/>
      <point x="37.6096" y="0"/>
      <point x="22" y="15.0176"/>
      <point x="22" y="48" type="curve" smooth="yes"/>
      <point x="22" y="328.601" type="line" smooth="yes"/>
      <point x="22" y="367.155"/>
      <point x="40.0205" y="393.601"/>
      <point x="81" y="393.601" type="curve" smooth="yes"/>
      <point x="259.197" y="393.601" type="line"/>
      <point x="259.198" y="286" type="line"/>
      <point x="156" y="286" type="line" smooth="yes"/>
      <point x="149.064" y="286"/>
      <point x="146.004" y="282.292"/>
      <point x="146.004" y="276.199" type="curve" smooth="yes"/>
      <point x="146.004" y="126" type="line" smooth="yes"/>
      <point x="146.004" y="113.333"/>
      <point x="152.337" y="107"/>
      <point x="165.004" y="107" type="curve" smooth="yes"/>
      <point x="181.803" y="107" type="line" smooth="yes"/>
      <point x="196.469" y="107"/>
      <point x="203.803" y="115.333"/>
      <point x="203.803" y="132" type="curve" smooth="yes"/>
      <point x="203.803" y="222" type="line"/>
      <point x="303.398" y="222" type="line"/>
      <point x="303.398" y="134" type="line" smooth="yes"/>
      <point x="303.398" y="116"/>
      <point x="309.263" y="107"/>
      <point x="324.597" y="107" type="curve" smooth="yes"/>
      <point x="343.196" y="107" type="line" smooth="yes"/>
      <point x="356.103" y="107"/>
      <point x="361.197" y="115.669"/>
      <point x="361.197" y="126.799" type="curve" smooth="yes"/>
      <point x="361.201" y="407" type="line"/>
    </contour>
  </outline>
</glyph>
<glyph name="si_MatraU" format="1">
  <advance width="2"/>
  <unicode hex="0DD4"/>
  <outline>
    <contour>
      <point x="-41.9121" y="-159" type="line"/>
      <point x="-502.806" y="-159" type="line"/>
      <point x="-502.806" y="-53" type="line"/>
      <point x="-164.912" y="-53" type="line"/>
      <point x="-164.912" y="28.6035" type="line"/>
      <point x="-92.9121" y="28.6035" type="line" smooth="yes"/>
      <point x="-64.2451" y="28.6035"/>
      <point x="-47.2451" y="41.6035"/>
      <point x="-41.9121" y="67.6035" type="curve"/>
    </contour>
  </outline>
</glyph>
<glyph name="si_Ba.reph" format="1">
  <advance width="515"/>
  <outline>
    <contour>
      <point x="198" y="54" type="curve" smooth="yes"/>
      <point x="197" y="277.414" type="line" smooth="yes"/>
      <point x="196.952" y="288.885"/>
      <point x="194.912" y="295.414"/>
      <point x="183.399" y="295.414" type="curve" smooth="yes"/>
      <point x="161.999" y="295.414" type="line" smooth="yes"/>
      <point x="147.999" y="295.414"/>
      <point x="146" y="289.081"/>
      <point x="146" y="276.414" type="curve" smooth="yes"/>
      <point x="146" y="129" type="line" smooth="yes"/>
      <point x="146" y="114.333"/>
      <point x="152" y="107"/>
      <point x="164" y="107" type="curve" smooth="yes"/>
      <point x="172" y="107" type="line"/>
      <point x="172" y="0" type="line"/>
      <point x="72" y="0" type="line" smooth="yes"/>
      <point x="34.9277" y="0"/>
      <point x="22" y="16.2734"/>
      <point x="22" y="54" type="curve" smooth="yes"/>
      <point x="22" y="347.016" type="line" smooth="yes"/>
      <point x="22" y="383.683"/>
      <point x="40.667" y="402.016"/>
      <point x="78" y="402.016" type="curve" smooth="yes"/>
      <point x="256" y="402.016" type="line" smooth="yes"/>
      <point x="288.128" y="402.016"/>
      <point x="311" y="387.803"/>
      <point x="311" y="348.414" type="curve" smooth="yes"/>
      <point x="311" y="126.195" type="line" smooth="yes"/>
      <point x="311" y="110.599"/>
      <point x="313.397" y="107"/>
      <point x="327.397" y="107" type="curve" smooth="yes"/>
      <point x="345.402" y="107" type="line" smooth="yes"/>
      <point x="357.402" y="107"/>
      <point x="361" y="110.33"/>
      <point x="361" y="124.996" type="curve" smooth="yes"/>
      <point x="361" y="347" type="line"/>
      <point x="485" y="347" type="line"/>
      <point x="485" y="54" type="line" smooth="yes"/>
      <point x="485" y="16.2705"/>
      <point x="472.075" y="0"/>
      <point x="435" y="0" type="curve" smooth="yes"/>
      <point x="250" y="0" type="line" smooth="yes"/>
      <point x="213.253" y="0"/>
      <point x="198.167" y="16.7306"/>
    </contour>
    <contour>
      <point x="213.593" y="628" type="line"/>
      <point x="297.802" y="628" type="line"/>
      <point x="297.802" y="590.188" type="line" smooth="yes"/>
      <point x="297.802" y="563.011"/>
      <point x="286.311" y="553.188"/>
      <point x="266.802" y="553.188" type="curve" smooth="yes"/>
      <point x="94.8018" y="553.188" type="line" smooth="yes"/>
      <point x="68.332" y="553.188"/>
      <point x="54.8018" y="567.084"/>
      <point x="54.8018" y="599.188" type="curve" smooth="yes"/>
      <point x="54.8018" y="669" type="line" smooth="yes"/>
      <point x="54.8018" y="697.736"/>
      <point x="72.0508" y="717"/>
      <point x="108.802" y="717" type="curve" smooth="yes"/>
      <point x="393.802" y="717" type="line" smooth="yes"/>
      <point x="427.247" y="717"/>
      <point x="444.802" y="700.164"/>
      <point x="444.802" y="661" type="curve" smooth="yes"/>
      <point x="444.802" y="575.198" type="line"/>
      <point x="331.802" y="575.198" type="line"/>
      <point x="331.802" y="630" type="line" smooth="yes"/>
      <point x="331.802" y="645.321"/>
      <point x="326.469" y="653"/>
      <point x="315.802" y="653" type="curve" smooth="yes"/>
      <point x="182.802" y="653" type="line" smooth="yes"/>
      <point x="172.135" y="653"/>
      <point x="166.802" y="648.667"/>
      <point x="166.802" y="640" type="curve" smooth="yes"/>
      <point x="166.802" y="612" type="line" smooth="yes"/>
      <point x="166.802" y="603.333"/>
      <point x="170.521" y="599"/>
      <point x="178.802" y="599" type="curve" smooth="yes"/>
      <point x="200.802" y="599" type="line" smooth="yes"/>
      <point x="212.066" y="599"/>
      <point x="213.593" y="604.333"/>
      <point x="213.593" y="615" type="curve" smooth="yes"/>
    </contour>
    <contour>
      <point x="416" y="557" type="line" smooth="yes"/>
      <point x="471" y="557"/>
      <point x="485" y="532.687"/>
      <point x="485" y="476" type="curve" smooth="yes"/>
      <point x="485" y="332" type="line"/>
      <point x="361" y="332" type="line"/>
      <point x="361" y="426.602" type="line" smooth="yes"/>
      <point x="361" y="444.95"/>
      <point x="354.062" y="449.602"/>
      <point x="335" y="449.602" type="curve" smooth="yes"/>
      <point x="22" y="449.602" type="line"/>
      <point x="22" y="557" type="line"/>
    </contour>
  </outline>
</glyph>
<glyph name="si_CU" format="1">
  <advance width="539"/>
  <outline>
    <contour>
      <point x="509.088" y="-159" type="line"/>
      <point x="48.1943" y="-159" type="line"/>
      <point x="48.1943" y="-53" type="line"/>
      <point x="386.088" y="-53" type="line"/>
      <point x="386.088" y="28.6035" type="line"/>
      <point x="458.088" y="28.6035" type="line" smooth="yes"/>
      <point x="486.755" y="28.6035"/>
      <point x="503.755" y="41.6035"/>
      <point x="509.088" y="67.6035" type="curve"/>
    </contour>
    <component base="si_Ca"/>
  </outline>
</glyph>
<glyph name="si_CUu" format="1">
  <advance width="539"/>
  <outline>
    <contour>
      <point x="509.006" y="-158.999" type="line"/>
      <point x="392.406" y="-158.999" type="line"/>
      <point x="384.852" y="-151.036"/>
      <point x="376.939" y="-141.535"/>
      <point x="369.211" y="-136.201" type="curve" smooth="yes"/>
      <point x="359.04" y="-129.182"/>
      <point x="347.52" y="-129.002"/>
      <point x="337.411" y="-129.002" type="curve"/>
      <point x="311.405" y="-129.002" type="line"/>
      <point x="299.43" y="-129.002"/>
      <point x="289.834" y="-131.704"/>
      <point x="277.405" y="-136.803" type="curve"/>
      <point x="234.201" y="-153.804" type="line"/>
      <point x="222.413" y="-158.021"/>
      <point x="210.408" y="-162.805"/>
      <point x="182.408" y="-162.805" type="curve" smooth="yes"/>
      <point x="96.2021" y="-162.805" type="line" smooth="yes"/>
      <point x="63.7881" y="-162.805"/>
      <point x="48.2012" y="-150.575"/>
      <point x="48.2012" y="-122.002" type="curve" smooth="yes"/>
      <point x="48.2012" y="-29.0029" type="line"/>
      <point x="165.201" y="-29.0029" type="line"/>
      <point x="165.201" y="-51.002" type="line" smooth="yes"/>
      <point x="165.201" y="-62.2861"/>
      <point x="170.069" y="-69.0029"/>
      <point x="182.006" y="-69.0029" type="curve" smooth="yes"/>
      <point x="188.202" y="-69.0029" type="line" smooth="yes"/>
      <point x="201.202" y="-69.0029"/>
      <point x="217.347" y="-65.4404"/>
      <point x="234.201" y="-58.8008" type="curve"/>
      <point x="267.401" y="-46.001" type="line"/>
      <point x="280.367" y="-40.6738"/>
      <point x="293.554" y="-39.002"/>
      <point x="309.201" y="-39.002" type="curve"/>
      <point x="339.42" y="-39.002" type="line"/>
      <point x="349.381" y="-39.002"/>
      <point x="366.443" y="-39.1924"/>
      <point x="374.616" y="-45.002" type="curve" smooth="yes"/>
      <point x="380.423" y="-49.1299"/>
      <point x="381.257" y="-50.2412"/>
      <point x="386.004" y="-55.002" type="curve"/>
      <point x="386.004" y="14" type="line"/>
      <point x="464.006" y="14" type="line" smooth="yes"/>
      <point x="490.006" y="14"/>
      <point x="505.006" y="28"/>
      <point x="509.006" y="56" type="curve"/>
    </contour>
    <component base="si_Ca"/>
  </outline>
</glyph>
<glyph name="si_DU" format="1">
  <advance width="460"/>
  <outline>
    <contour>
      <point x="429" y="-159" type="line"/>
      <point x="20.999" y="-159" type="line"/>
      <point x="20.999" y="-52" type="line"/>
      <point x="305.008" y="-52" type="line"/>
      <point x="305.005" y="14.0039" type="line"/>
      <point x="429.002" y="14" type="line"/>
    </contour>
    <contour>
      <point x="429" y="0.000976562" type="line"/>
      <point x="66.2002" y="0" type="line" smooth="yes"/>
      <point x="32.2002" y="-0"/>
      <point x="22" y="17.9256"/>
      <point x="22" y="49.5996" type="curve" smooth="yes"/>
      <point x="22" y="298" type="line" smooth="yes"/>
      <point x="22" y="338.657"/>
      <point x="43.1063" y="355"/>
      <point x="80" y="355" type="curve" smooth="yes"/>
      <point x="301" y="355" type="line"/>
      <point x="300.999" y="378" type="line" smooth="yes"/>
      <point x="300.998" y="391.308"/>
      <point x="296.338" y="394.001"/>
      <point x="287.005" y="394.001" type="curve" smooth="yes"/>
      <point x="22" y="394.001" type="line"/>
      <point x="22" y="497.001" type="line"/>
      <point x="372" y="497" type="line" smooth="yes"/>
      <point x="405.565" y="497"/>
      <point x="425" y="480.913"/>
      <point x="425" y="444" type="curve" smooth="yes"/>
      <point x="425" y="253.001" type="line"/>
      <point x="168" y="253" type="line" smooth="yes"/>
      <point x="151.333" y="253"/>
      <point x="146" y="245.668"/>
      <point x="146" y="231.001" type="curve" smooth="yes"/>
      <point x="146" y="133.001" type="line" smooth="yes"/>
      <point x="146" y="113.159"/>
      <point x="151.048" y="107"/>
      <point x="166.2" y="107" type="curve" smooth="yes"/>
      <point x="429" y="107.001" type="line"/>
    </contour>
  </outline>
</glyph>
<glyph name="si_Dd.halant" format="1">
  <advance width="515"/>
  <outline>
    <contour>
      <point x="485" y="400" type="line"/>
      <point x="361" y="400" type="line"/>
      <point x="361" y="441" type="line" smooth="yes"/>
      <point x="361" y="459.349"/>
      <point x="354.061" y="464"/>
      <point x="335" y="464" type="curve" smooth="yes"/>
      <point x="14" y="464" type="line"/>
      <point x="14" y="550" type="line"/>
      <point x="94" y="550" type="line"/>
      <point x="64.6667" y="557.333"/>
      <point x="50" y="571.667"/>
      <point x="50" y="593" type="curve" smooth="yes"/>
      <point x="50" y="632" type="line" smooth="yes"/>
      <point x="50" y="659.333"/>
      <point x="66.3333" y="673"/>
      <point x="99" y="673" type="curve" smooth="yes"/>
      <point x="483" y="673" type="line"/>
      <point x="483" y="589" type="line"/>
      <point x="206" y="589" type="line" smooth="yes"/>
      <point x="188" y="589"/>
      <point x="179" y="584.333"/>
      <point x="179" y="575" type="curve" smooth="yes"/>
      <point x="179" y="565.226"/>
      <point x="186.926" y="558"/>
      <point x="197" y="558" type="curve" smooth="yes"/>
      <point x="416" y="558" type="line" smooth="yes"/>
      <point x="471.441" y="558"/>
      <point x="485" y="533.686"/>
      <point x="485" y="477" type="curve" smooth="yes"/>
    </contour>
    <contour>
      <point x="-6" y="296.371" type="line"/>
      <point x="88" y="296.371" type="line"/>
      <point x="88" y="199.371" type="line"/>
      <point x="-6" y="199.371" type="line"/>
    </contour>
    <contour>
      <point x="69.998" y="0" type="line" smooth="yes"/>
      <point x="33" y="0"/>
      <point x="22" y="16.273"/>
      <point x="22" y="54" type="curve" smooth="yes"/>
      <point x="22" y="148" type="line" smooth="yes"/>
      <point x="22" y="183.035"/>
      <point x="29.667" y="194.042"/>
      <point x="45" y="201.375" type="curve"/>
      <point x="61.2197" y="223.677"/>
      <point x="40.8584" y="296.375"/>
      <point x="78" y="296.375" type="curve" smooth="yes"/>
      <point x="145.592" y="296.375" type="line"/>
      <point x="145.584" y="296.603"/>
      <point x="145.542" y="319.375"/>
      <point x="145.542" y="319.375" type="curve" smooth="yes"/>
      <point x="145.542" y="329.375"/>
      <point x="138.875" y="334.375"/>
      <point x="125.542" y="334.375" type="curve" smooth="yes"/>
      <point x="23" y="334.375" type="line"/>
      <point x="23" y="437.375" type="line"/>
      <point x="192" y="437.375" type="line" smooth="yes"/>
      <point x="230.669" y="437.375"/>
      <point x="264" y="421.141"/>
      <point x="264" y="383.375" type="curve" smooth="yes"/>
      <point x="264" y="193.375" type="line"/>
      <point x="169" y="193.375" type="line" smooth="yes"/>
      <point x="153.667" y="193.375"/>
      <point x="146" y="187.708"/>
      <point x="146" y="176.375" type="curve" smooth="yes"/>
      <point x="146" y="130" type="line" smooth="yes"/>
      <point x="146" y="114.667"/>
      <point x="152" y="107"/>
      <point x="164.804" y="107" type="curve" smooth="yes"/>
      <point x="181.803" y="107" type="line" smooth="yes"/>
      <point x="196" y="107"/>
      <point x="203.803" y="115.333"/>
      <point x="203.803" y="132" type="curve" smooth="yes"/>
      <point x="203.803" y="161.182" type="line"/>
      <point x="303.398" y="161.182" type="line"/>
      <point x="303.398" y="134" type="line" smooth="yes"/>
      <point x="303.398" y="116"/>
      <point x="311.064" y="107"/>
      <point x="326.398" y="107" type="curve" smooth="yes"/>
      <point x="343.997" y="107" type="line" smooth="yes"/>
      <point x="355.33" y="107"/>
      <point x="360.997" y="114"/>
      <point x="360.997" y="128" type="curve" smooth="yes"/>
      <point x="360.997" y="422.802" type="line"/>
      <point x="484.998" y="423" type="line"/>
      <point x="484.998" y="50" type="line" smooth="yes"/>
      <point x="484.998" y="19.6379"/>
      <point x="471.396" y="-4.08988e-15"/>
      <point x="438" y="0" type="curve" smooth="yes"/>
      <point x="301.803" y="0" type="line" smooth="yes"/>
      <point x="275.803" y="0"/>
      <point x="259.469" y="12.333"/>
      <point x="252.803" y="37" type="curve"/>
      <point x="249.629" y="16.3779"/>
      <point x="229" y="0"/>
      <point x="205.803" y="0" type="curve" smooth="yes"/>
    </contour>
  </outline>
</glyph>
<glyph name="si_DdIi" format="1">
  <advance width="515"/>
  <outline>
    <contour>
      <point x="361" y="405" type="line"/>
      <point x="361" y="434" type="line" smooth="yes"/>
      <point x="361" y="452.191"/>
      <point x="343.683" y="464"/>
      <point x="325" y="464" type="curve" smooth="yes"/>
      <point x="65" y="464" type="line" smooth="yes"/>
      <point x="35.1571" y="464"/>
      <point x="22" y="472.771"/>
      <point x="22" y="505" type="curve" smooth="yes"/>
      <point x="22" y="618" type="line" smooth="yes"/>
      <point x="22" y="654.86"/>
      <point x="35.4108" y="672"/>
      <point x="72" y="672" type="curve" smooth="yes"/>
      <point x="435" y="672" type="line" smooth="yes"/>
      <point x="471.588" y="672"/>
      <point x="485" y="654.858"/>
      <point x="485" y="618" type="curve" smooth="yes"/>
      <point x="485" y="552" type="line" smooth="yes"/>
      <point x="485" y="529.838"/>
      <point x="468.868" y="512.774"/>
      <point x="450" y="509" type="curve"/>
      <point x="471.911" y="502.153"/>
      <point x="485" y="474.275"/>
      <point x="485" y="445" type="curve" smooth="yes"/>
      <point x="485" y="405" type="line"/>
    </contour>
    <contour>
      <point x="232" y="539" type="line"/>
      <point x="224.066" y="543.656"/>
      <point x="221" y="547.826"/>
      <point x="221" y="564" type="curve" smooth="yes"/>
      <point x="221" y="575" type="line" smooth="yes"/>
      <point x="221" y="581.855"/>
      <point x="221.142" y="584.018"/>
      <point x="224" y="587" type="curve"/>
      <point x="153" y="587" type="line" smooth="yes"/>
      <point x="141.667" y="587"/>
      <point x="136" y="582.333"/>
      <point x="136" y="573" type="curve" smooth="yes"/>
      <point x="136" y="554" type="line" smooth="yes"/>
      <point x="136" y="544"/>
      <point x="141.333" y="539"/>
      <point x="152" y="539" type="curve" smooth="yes"/>
    </contour>
    <contour>
      <point x="326" y="594" type="line" smooth="yes"/>
      <point x="317.619" y="594"/>
      <point x="313" y="588.388"/>
      <point x="313" y="581" type="curve" smooth="yes"/>
      <point x="313" y="558" type="line" smooth="yes"/>
      <point x="313" y="547.623"/>
      <point x="322.201" y="543"/>
      <point x="331" y="543" type="curve" smooth="yes"/>
      <point x="368" y="543" type="line" smooth="yes"/>
      <point x="379.682" y="543"/>
      <point x="388" y="549.518"/>
      <point x="388" y="564" type="curve" smooth="yes"/>
      <point x="388" y="582" type="line" smooth="yes"/>
      <point x="388" y="591.396"/>
      <point x="381.685" y="594"/>
      <point x="377" y="594" type="curve" smooth="yes"/>
    </contour>
    <contour>
      <point x="-6" y="296.371" type="line"/>
      <point x="88" y="296.371" type="line"/>
      <point x="88" y="199.371" type="line"/>
      <point x="-6" y="199.371" type="line"/>
    </contour>
    <contour>
      <point x="22" y="148" type="line" smooth="yes"/>
      <point x="22" y="183.035"/>
      <point x="29.667" y="194.042"/>
      <point x="45" y="201.375" type="curve"/>
      <point x="61.2197" y="223.677"/>
      <point x="40.8584" y="296.375"/>
      <point x="78" y="296.375" type="curve" smooth="yes"/>
      <point x="145.592" y="296.375" type="line"/>
      <point x="145.584" y="296.603"/>
      <point x="145.542" y="319.375"/>
      <point x="145.542" y="319.375" type="curve" smooth="yes"/>
      <point x="145.542" y="329.375"/>
      <point x="138.875" y="334.375"/>
      <point x="125.542" y="334.375" type="curve" smooth="yes"/>
      <point x="23" y="334.375" type="line"/>
      <point x="23" y="437.375" type="line"/>
      <point x="192" y="437.375" type="line" smooth="yes"/>
      <point x="230.669" y="437.375"/>
      <point x="264" y="421.141"/>
      <point x="264" y="383.375" type="curve" smooth="yes"/>
      <point x="264" y="193.375" type="line"/>
      <point x="169" y="193.375" type="line" smooth="yes"/>
      <point x="153.667" y="193.375"/>
      <point x="146" y="187.708"/>
      <point x="146" y="176.375" type="curve" smooth="yes"/>
      <point x="146" y="130" type="line" smooth="yes"/>
      <point x="146" y="114.667"/>
      <point x="152" y="107"/>
      <point x="164.804" y="107" type="curve" smooth="yes"/>
      <point x="181.803" y="107" type="line" smooth="yes"/>
      <point x="196" y="107"/>
      <point x="203.803" y="115.333"/>
      <point x="203.803" y="132" type="curve" smooth="yes"/>
      <point x="203.803" y="161.182" type="line"/>
      <point x="303.398" y="161.182" type="line"/>
      <point x="303.398" y="134" type="line" smooth="yes"/>
      <point x="303.398" y="116"/>
      <point x="311.064" y="107"/>
      <point x="326.398" y="107" type="curve" smooth="yes"/>
      <point x="343.997" y="107" type="line" smooth="yes"/>
      <point x="355.33" y="107"/>
      <point x="360.997" y="114"/>
      <point x="360.997" y="128" type="curve" smooth="yes"/>
      <point x="360.997" y="422.802" type="line"/>
      <point x="484.998" y="423" type="line"/>
      <point x="484.998" y="50" type="line" smooth="yes"/>
      <point x="484.998" y="19.6379"/>
      <point x="471.396" y="-4.08988e-15"/>
      <point x="438" y="0" type="curve" smooth="yes"/>
      <point x="301.803" y="0" type="line" smooth="yes"/>
      <point x="275.803" y="0"/>
      <point x="259.469" y="12.333"/>
      <point x="252.803" y="37" type="curve"/>
      <point x="249.629" y="16.3779"/>
      <point x="229" y="0"/>
      <point x="205.803" y="0" type="curve" smooth="yes"/>
      <point x="69.998" y="0" type="line" smooth="yes"/>
      <point x="33" y="0"/>
      <point x="22" y="16.273"/>
      <point x="22" y="54" type="curve" smooth="yes"/>
    </contour>
  </outline>
</glyph>
<glyph name="si_DhR.halant" format="1">
  <advance width="515"/>
  <outline>
    <contour>
      <point x="23.4004" y="-15.8076" type="line"/>
      <point x="23.4004" y="-114.824" type="line" smooth="yes"/>
      <point x="23.4004" y="-144.818"/>
      <point x="40.3164" y="-159.021"/>
      <point x="67.4004" y="-159.021" type="curve" smooth="yes"/>
      <point x="443" y="-159.021" type="line" smooth="yes"/>
      <point x="468.333" y="-159.021"/>
      <point x="484" y="-147.587"/>
      <point x="484" y="-116.021" type="curve" smooth="yes"/>
      <point x="484" y="-15.8076" type="line"/>
      <point x="359.995" y="-15.8076" type="line"/>
      <point x="359.995" y="-35.0098" type="line" smooth="yes"/>
      <point x="359.995" y="-47.8877"/>
      <point x="359.279" y="-53.0107"/>
      <point x="346.399" y="-53.0107" type="curve" smooth="yes"/>
      <point x="160.4" y="-53.0107" type="line" smooth="yes"/>
      <point x="149.067" y="-53.0107"/>
      <point x="147.405" y="-47.0107"/>
      <point x="147.405" y="-35.0107" type="curve" smooth="yes"/>
      <point x="147.405" y="-15.8076" type="line"/>
    </contour>
    <contour>
      <point x="485" y="400" type="line"/>
      <point x="361" y="400" type="line"/>
      <point x="361" y="441" type="line" smooth="yes"/>
      <point x="361" y="459.349"/>
      <point x="354.061" y="464"/>
      <point x="335" y="464" type="curve" smooth="yes"/>
      <point x="14" y="464" type="line"/>
      <point x="14" y="550" type="line"/>
      <point x="94" y="550" type="line"/>
      <point x="64.6667" y="557.333"/>
      <point x="50" y="571.667"/>
      <point x="50" y="593" type="curve" smooth="yes"/>
      <point x="50" y="632" type="line" smooth="yes"/>
      <point x="50" y="659.333"/>
      <point x="66.3333" y="673"/>
      <point x="99" y="673" type="curve" smooth="yes"/>
      <point x="483" y="673" type="line"/>
      <point x="483" y="589" type="line"/>
      <point x="206" y="589" type="line" smooth="yes"/>
      <point x="188" y="589"/>
      <point x="179" y="584.333"/>
      <point x="179" y="575" type="curve" smooth="yes"/>
      <point x="179" y="565.226"/>
      <point x="186.926" y="558"/>
      <point x="197" y="558" type="curve" smooth="yes"/>
      <point x="416" y="558" type="line" smooth="yes"/>
      <point x="471.441" y="558"/>
      <point x="485" y="533.686"/>
      <point x="485" y="477" type="curve" smooth="yes"/>
    </contour>
    <contour>
      <point x="484.998" y="415" type="line"/>
      <point x="484.998" y="49" type="line" smooth="yes"/>
      <point x="484.998" y="16.6827"/>
      <point x="471.396" y="-4.08988e-15"/>
      <point x="438" y="0" type="curve" smooth="yes"/>
      <point x="301.803" y="0" type="line" smooth="yes"/>
      <point x="275.803" y="0"/>
      <point x="259.469" y="12.333"/>
      <point x="252.803" y="37" type="curve"/>
      <point x="249.629" y="16.3779"/>
      <point x="229.072" y="0"/>
      <point x="205.803" y="0" type="curve" smooth="yes"/>
      <point x="69" y="0" type="line" smooth="yes"/>
      <point x="37.6096" y="0"/>
      <point x="22" y="15.0176"/>
      <point x="22" y="48" type="curve" smooth="yes"/>
      <point x="22" y="361.008" type="line" smooth="yes"/>
      <point x="22" y="399.562"/>
      <point x="40.0205" y="426.008"/>
      <point x="81" y="426.008" type="curve" smooth="yes"/>
      <point x="259.197" y="426.008" type="line"/>
      <point x="259.198" y="318.407" type="line"/>
      <point x="156" y="318.407" type="line" smooth="yes"/>
      <point x="149.064" y="318.407"/>
      <point x="146.004" y="314.699"/>
      <point x="146.004" y="308.606" type="curve" smooth="yes"/>
      <point x="146.004" y="126" type="line" smooth="yes"/>
      <point x="146.004" y="113.333"/>
      <point x="152.337" y="107"/>
      <point x="165.004" y="107" type="curve" smooth="yes"/>
      <point x="181.803" y="107" type="line" smooth="yes"/>
      <point x="196.469" y="107"/>
      <point x="203.803" y="115.333"/>
      <point x="203.803" y="132" type="curve" smooth="yes"/>
      <point x="203.803" y="244.796" type="line"/>
      <point x="303.398" y="244.796" type="line"/>
      <point x="303.398" y="134" type="line" smooth="yes"/>
      <point x="303.398" y="116"/>
      <point x="311.064" y="107"/>
      <point x="326.398" y="107" type="curve" smooth="yes"/>
      <point x="343.997" y="107" type="line" smooth="yes"/>
      <point x="355.33" y="107"/>
      <point x="360.997" y="114"/>
      <point x="360.997" y="128" type="curve" smooth="yes"/>
      <point x="360.997" y="414.998" type="line"/>
    </contour>
  </outline>
</glyph>
<glyph name="si_FIi" format="1">
  <advance width="564"/>
  <outline>
    <contour>
      <point x="382.589" y="582.198" type="line" smooth="yes"/>
      <point x="372.589" y="582.198"/>
      <point x="367.589" y="578.198"/>
      <point x="367.589" y="570.198" type="curve" smooth="yes"/>
      <point x="367.589" y="562.011" type="line" smooth="yes"/>
      <point x="367.589" y="553.344"/>
      <point x="372.922" y="549.011"/>
      <point x="383.589" y="549.011" type="curve" smooth="yes"/>
      <point x="424.589" y="549.011" type="line" smooth="yes"/>
      <point x="435.256" y="549.011"/>
      <point x="440.589" y="553.678"/>
      <point x="440.589" y="563.011" type="curve" smooth="yes"/>
      <point x="440.589" y="570.198" type="line" smooth="yes"/>
      <point x="440.589" y="578.198"/>
      <point x="434.922" y="582.198"/>
      <point x="423.589" y="582.198" type="curve" smooth="yes"/>
    </contour>
    <contour>
      <point x="160.995" y="546.001" type="line" smooth="yes"/>
      <point x="150.005" y="546"/>
      <point x="148" y="540.001"/>
      <point x="148" y="528.001" type="curve" smooth="yes"/>
      <point x="148" y="511" type="line"/>
      <point x="23.9951" y="511" type="line"/>
      <point x="23.9951" y="595.803" type="line" smooth="yes"/>
      <point x="23.9951" y="625.797"/>
      <point x="40.2148" y="640.011"/>
      <point x="67.2051" y="640.011" type="curve" smooth="yes"/>
      <point x="490.79" y="640.012" type="line" smooth="yes"/>
      <point x="518.27" y="640.012"/>
      <point x="532.589" y="626.66"/>
      <point x="532.589" y="600" type="curve" smooth="yes"/>
      <point x="532.589" y="540.996" type="line" smooth="yes"/>
      <point x="532.589" y="521"/>
      <point x="522.587" y="510.996"/>
      <point x="502.589" y="510.996" type="curve" smooth="yes"/>
      <point x="302.589" y="510.994" type="line" smooth="yes"/>
      <point x="279.313" y="510.994"/>
      <point x="274.589" y="520.251"/>
      <point x="274.589" y="531.996" type="curve" smooth="yes"/>
      <point x="274.589" y="537.993" type="line" smooth="yes"/>
      <point x="274.589" y="542.524"/>
      <point x="275.406" y="545.002"/>
      <point x="276.988" y="545.993" type="curve"/>
    </contour>
    <component base="si_Fa"/>
  </outline>
</glyph>
<glyph name="si_JnyU" format="1">
  <advance width="998"/>
  <outline>
    <contour>
      <point x="588.001" y="394.004" type="line"/>
      <point x="540.39" y="394.004" type="line" smooth="yes"/>
      <point x="527.057" y="394.004"/>
      <point x="519.057" y="388.337"/>
      <point x="516.39" y="377.004" type="curve" smooth="yes"/>
      <point x="498.187" y="288" type="line"/>
      <point x="500.937" y="287.928" type="line" smooth="yes"/>
      <point x="515.77" y="287.538"/>
      <point x="523.187" y="276.896"/>
      <point x="523.187" y="256" type="curve" smooth="yes"/>
      <point x="523.187" y="60" type="line" smooth="yes"/>
      <point x="523.187" y="12.6074"/>
      <point x="503.786" y="0"/>
      <point x="456.187" y="0" type="curve" smooth="yes"/>
      <point x="238.001" y="0" type="line" smooth="yes"/>
      <point x="201.362" y="0"/>
      <point x="190.001" y="14.0518"/>
      <point x="190.001" y="51" type="curve" smooth="yes"/>
      <point x="190.001" y="440.999" type="line" smooth="yes"/>
      <point x="190.001" y="478.332"/>
      <point x="208.334" y="496.999"/>
      <point x="245.001" y="496.999" type="curve" smooth="yes"/>
      <point x="364.782" y="496.999" type="line"/>
      <point x="364.782" y="394" type="line"/>
      <point x="337.001" y="393.998" type="line" smooth="yes"/>
      <point x="316.818" y="393.997"/>
      <point x="314.001" y="389.129"/>
      <point x="314.001" y="368.998" type="curve" smooth="yes"/>
      <point x="314.001" y="128" type="line" smooth="yes"/>
      <point x="314.001" y="114"/>
      <point x="319.668" y="107"/>
      <point x="331.001" y="107" type="curve" smooth="yes"/>
      <point x="382.187" y="107" type="line" smooth="yes"/>
      <point x="401.896" y="107"/>
      <point x="402.187" y="111.54"/>
      <point x="402.187" y="132" type="curve" smooth="yes"/>
      <point x="402.187" y="196" type="line" smooth="yes"/>
      <point x="402.187" y="209.333"/>
      <point x="397.187" y="216"/>
      <point x="387.187" y="216" type="curve" smooth="yes"/>
      <point x="373.187" y="216" type="line"/>
      <point x="411.187" y="446" type="line" smooth="yes"/>
      <point x="417.187" y="480"/>
      <point x="441.187" y="497"/>
      <point x="483.187" y="497" type="curve" smooth="yes"/>
      <point x="588" y="497" type="line"/>
    </contour>
    <contour>
      <point x="158.998" y="398.001" type="line" smooth="yes"/>
      <point x="146.598" y="398.001"/>
      <point x="140.001" y="392"/>
      <point x="140.001" y="374" type="curve" smooth="yes"/>
      <point x="140.001" y="0" type="line"/>
      <point x="22" y="0" type="line"/>
      <point x="22" y="406" type="line" smooth="yes"/>
      <point x="22" y="459.609"/>
      <point x="56.2471" y="497"/>
      <point x="108.4" y="497" type="curve" smooth="yes"/>
      <point x="255.002" y="496.999" type="line"/>
      <point x="202.001" y="398" type="line"/>
    </contour>
    <component base="si_DU" xOffset="539"/>
  </outline>
</glyph>
<glyph name="si_LlI" format="1">
  <advance width="553"/>
  <outline>
    <contour>
      <point x="73.3975" y="511" type="line"/>
      <point x="73.3975" y="595.803" type="line" smooth="yes"/>
      <point x="73.3975" y="625.797"/>
      <point x="90.3135" y="640"/>
      <point x="117.397" y="640" type="curve" smooth="yes"/>
      <point x="481" y="640" type="line" smooth="yes"/>
      <point x="506.333" y="640"/>
      <point x="522" y="628.565"/>
      <point x="522" y="597" type="curve" smooth="yes"/>
      <point x="522" y="511" type="line"/>
      <point x="397.995" y="511" type="line"/>
      <point x="397.995" y="528" type="line" smooth="yes"/>
      <point x="397.995" y="540.878"/>
      <point x="397.279" y="546.001"/>
      <point x="384.399" y="546.001" type="curve" smooth="yes"/>
      <point x="210.397" y="546.001" type="line" smooth="yes"/>
      <point x="199.064" y="546.001"/>
      <point x="197.402" y="540.001"/>
      <point x="197.402" y="528.001" type="curve" smooth="yes"/>
      <point x="197.402" y="511" type="line"/>
    </contour>
    <component base="si_Lla"/>
  </outline>
</glyph>
<glyph name="si_Ph.halant" format="1">
  <advance width="515"/>
  <outline>
    <contour>
      <point x="368.981" y="708" type="line"/>
      <point x="484.981" y="708" type="line"/>
      <point x="484.981" y="480" type="line"/>
      <point x="368.982" y="480" type="line"/>
    </contour>
    <contour>
      <point x="222.198" y="576" type="line"/>
      <point x="222.198" y="527.199" type="line" smooth="yes"/>
      <point x="222.198" y="508.791"/>
      <point x="229.601" y="508.614"/>
      <point x="243.981" y="508.614" type="curve" smooth="yes"/>
      <point x="359.381" y="508.614" type="line"/>
      <point x="359.381" y="511.211" type="line" smooth="yes"/>
      <point x="359.381" y="519.211"/>
      <point x="348.967" y="522.988"/>
      <point x="341.981" y="526" type="curve" smooth="yes"/>
      <point x="341.981" y="526"/>
      <point x="275.947" y="554.586"/>
      <point x="232.981" y="573" type="curve" smooth="yes"/>
      <point x="230.277" y="574.166"/>
      <point x="226.008" y="576"/>
      <point x="224.18" y="576" type="curve" smooth="yes"/>
    </contour>
    <contour>
      <point x="484.981" y="394" type="line"/>
      <point x="360.982" y="394" type="line"/>
      <point x="360.98" y="439.614" type="line"/>
      <point x="157.981" y="439.614" type="line" smooth="yes"/>
      <point x="124.689" y="439.614"/>
      <point x="112.198" y="450.586"/>
      <point x="112.198" y="487" type="curve" smooth="yes"/>
      <point x="112.198" y="577" type="line"/>
      <point x="61.1982" y="577" type="line"/>
      <point x="61.1982" y="664" type="line"/>
      <point x="183.981" y="664" type="line" smooth="yes"/>
      <point x="215.172" y="664"/>
      <point x="226.679" y="663.544"/>
      <point x="268.981" y="645" type="curve" smooth="yes"/>
      <point x="269.458" y="644.894"/>
      <point x="414.981" y="581"/>
      <point x="414.981" y="581" type="curve" smooth="yes"/>
      <point x="451.389" y="565.041"/>
      <point x="484.981" y="545.567"/>
      <point x="484.981" y="494" type="curve" smooth="yes"/>
    </contour>
    <contour>
      <point x="485" y="415" type="line"/>
      <point x="485" y="54" type="line" smooth="yes"/>
      <point x="485" y="16.2705"/>
      <point x="472.075" y="0"/>
      <point x="435" y="0" type="curve" smooth="yes"/>
      <point x="72" y="0" type="line" smooth="yes"/>
      <point x="34.9277" y="0"/>
      <point x="22" y="16.2734"/>
      <point x="22" y="54" type="curve" smooth="yes"/>
      <point x="22" y="216.999" type="line" smooth="yes"/>
      <point x="22" y="253.666"/>
      <point x="40.667" y="271.999"/>
      <point x="78" y="271.999" type="curve" smooth="yes"/>
      <point x="144" y="271.999" type="line"/>
      <point x="144" y="306" type="line" smooth="yes"/>
      <point x="144" y="315.333"/>
      <point x="138.667" y="320"/>
      <point x="128" y="320" type="curve" smooth="yes"/>
      <point x="21.999" y="320" type="line"/>
      <point x="21.999" y="415.393" type="line"/>
      <point x="205" y="415.393" type="line" smooth="yes"/>
      <point x="246.705" y="415.393"/>
      <point x="267.999" y="393.803"/>
      <point x="267.999" y="357.393" type="curve" smooth="yes"/>
      <point x="267.999" y="189.797" type="line"/>
      <point x="167" y="189.797" type="line" smooth="yes"/>
      <point x="153" y="189.797"/>
      <point x="146" y="183.464"/>
      <point x="146" y="170.797" type="curve" smooth="yes"/>
      <point x="146" y="129" type="line" smooth="yes"/>
      <point x="146" y="114.333"/>
      <point x="152" y="107"/>
      <point x="164" y="107" type="curve" smooth="yes"/>
      <point x="343" y="107" type="line" smooth="yes"/>
      <point x="355" y="107"/>
      <point x="361" y="114.333"/>
      <point x="361" y="129" type="curve" smooth="yes"/>
      <point x="361" y="415" type="line"/>
    </contour>
  </outline>
</glyph>
<glyph name="si_Pha.reph" format="1">
  <advance width="515"/>
  <outline>
    <contour>
      <point x="94.6279" y="535" type="line"/>
      <point x="146.628" y="535" type="line"/>
      <point x="146.628" y="469" type="line" smooth="yes"/>
      <point x="146.628" y="441.822"/>
      <point x="135.137" y="432"/>
      <point x="115.628" y="432" type="curve" smooth="yes"/>
      <point x="38.6279" y="432" type="line" smooth="yes"/>
      <point x="12.1582" y="432"/>
      <point x="-1.37207" y="445.896"/>
      <point x="-1.37207" y="478" type="curve" smooth="yes"/>
      <point x="-1.37207" y="576" type="line" smooth="yes"/>
      <point x="-1.37207" y="604.737"/>
      <point x="15.877" y="624"/>
      <point x="52.6279" y="624" type="curve" smooth="yes"/>
      <point x="176.628" y="624" type="line" smooth="yes"/>
      <point x="210.073" y="624"/>
      <point x="227.628" y="607.179"/>
      <point x="227.628" y="568" type="curve" smooth="yes"/>
      <point x="227.628" y="435" type="line"/>
      <point x="180.628" y="435" type="line"/>
      <point x="180.628" y="537" type="line" smooth="yes"/>
      <point x="180.628" y="552.333"/>
      <point x="175.295" y="560"/>
      <point x="164.628" y="560" type="curve" smooth="yes"/>
      <point x="70.4434" y="560" type="line" smooth="yes"/>
      <point x="59.7764" y="560"/>
      <point x="54.4434" y="555.667"/>
      <point x="54.4434" y="547" type="curve" smooth="yes"/>
      <point x="54.4434" y="519" type="line" smooth="yes"/>
      <point x="54.4434" y="510.333"/>
      <point x="58.1631" y="506"/>
      <point x="66.4434" y="506" type="curve" smooth="yes"/>
      <point x="81.8369" y="506" type="line" smooth="yes"/>
      <point x="93.1016" y="506"/>
      <point x="94.6279" y="511.333"/>
      <point x="94.6279" y="522" type="curve" smooth="yes"/>
    </contour>
    <contour>
      <point x="322.395" y="538" type="line"/>
      <point x="322.395" y="514.6" type="line" smooth="yes"/>
      <point x="322.395" y="496.191"/>
      <point x="329.797" y="496.015"/>
      <point x="344.178" y="496.015" type="curve" smooth="yes"/>
      <point x="358.199" y="496.015" type="line"/>
      <point x="358.2" y="522.001" type="line" smooth="yes"/>
      <point x="358.2" y="529.711"/>
      <point x="356.312" y="538"/>
      <point x="346" y="538" type="curve" smooth="yes"/>
    </contour>
    <contour>
      <point x="485.001" y="394" type="line"/>
      <point x="361" y="394" type="line"/>
      <point x="361" y="427.015" type="line"/>
      <point x="318.178" y="427.015" type="line" smooth="yes"/>
      <point x="284.886" y="427.015"/>
      <point x="272.395" y="437.986"/>
      <point x="272.395" y="474.4" type="curve" smooth="yes"/>
      <point x="272.395" y="539" type="line"/>
      <point x="249" y="539" type="line"/>
      <point x="249" y="626" type="line"/>
      <point x="419" y="626" type="line" smooth="yes"/>
      <point x="466.56" y="626"/>
      <point x="485.001" y="610.567"/>
      <point x="485.001" y="559" type="curve" smooth="yes"/>
    </contour>
    <contour>
      <point x="485" y="415" type="line"/>
      <point x="485" y="54" type="line" smooth="yes"/>
      <point x="485" y="16.2705"/>
      <point x="472.075" y="0"/>
      <point x="435" y="0" type="curve" smooth="yes"/>
      <point x="72" y="0" type="line" smooth="yes"/>
      <point x="34.9277" y="0"/>
      <point x="22" y="16.2734"/>
      <point x="22" y="54" type="curve" smooth="yes"/>
      <point x="22" y="216.999" type="line" smooth="yes"/>
      <point x="22" y="253.666"/>
      <point x="40.667" y="271.999"/>
      <point x="78" y="271.999" type="curve" smooth="yes"/>
      <point x="144" y="271.999" type="line"/>
      <point x="144" y="306" type="line" smooth="yes"/>
      <point x="144" y="315.333"/>
      <point x="138.667" y="320"/>
      <point x="128" y="320" type="curve" smooth="yes"/>
      <point x="21.999" y="320" type="line"/>
      <point x="21.999" y="415.393" type="line"/>
      <point x="205" y="415.393" type="line" smooth="yes"/>
      <point x="246.705" y="415.393"/>
      <point x="267.999" y="393.803"/>
      <point x="267.999" y="357.393" type="curve" smooth="yes"/>
      <point x="267.999" y="189.797" type="line"/>
      <point x="167" y="189.797" type="line" smooth="yes"/>
      <point x="153" y="189.797"/>
      <point x="146" y="183.464"/>
      <point x="146" y="170.797" type="curve" smooth="yes"/>
      <point x="146" y="129" type="line" smooth="yes"/>
      <point x="146" y="114.333"/>
      <point x="152" y="107"/>
      <point x="164" y="107" type="curve" smooth="yes"/>
      <point x="343" y="107" type="line" smooth="yes"/>
      <point x="355" y="107"/>
      <point x="361" y="114.333"/>
      <point x="361" y="129" type="curve" smooth="yes"/>
      <point x="361" y="415" type="line"/>
    </contour>
  </outline>
</glyph>
<glyph name="si_RAe" format="1">
  <advance width="712"/>
  <outline>
    <contour>
      <point x="456.82" y="637" type="line"/>
      <point x="682.827" y="637" type="line"/>
      <point x="682.827" y="535" type="line"/>
      <point x="597" y="279" type="line" smooth="yes"/>
      <point x="587.973" y="252.075"/>
      <point x="587.827" y="233.667"/>
      <point x="587.827" y="207" type="curve" smooth="yes"/>
      <point x="587.827" y="124" type="line" smooth="yes"/>
      <point x="587.827" y="112.667"/>
      <point x="594.827" y="107"/>
      <point x="608.827" y="107" type="curve" smooth="yes"/>
      <point x="682.827" y="107" type="line"/>
      <point x="682.827" y="0" type="line"/>
      <point x="522" y="0" type="line" smooth="yes"/>
      <point x="478.778" y="0"/>
      <point x="463.82" y="22.4559"/>
      <point x="463.82" y="57" type="curve" smooth="yes"/>
      <point x="463.82" y="222" type="line" smooth="yes"/>
      <point x="463.82" y="246.667"/>
      <point x="467.95" y="270.976"/>
      <point x="482" y="313" type="curve" smooth="yes"/>
      <point x="555.217" y="532" type="line"/>
      <point x="456.82" y="532" type="line"/>
    </contour>
    <component base="si_Ra"/>
  </outline>
</glyph>
<glyph name="si_ShU" format="1">
  <advance width="592"/>
  <outline>
    <contour>
      <point x="558" y="-53.1924" type="line"/>
      <point x="558" y="-159.013" type="line"/>
      <point x="389.795" y="-159.013" type="line" smooth="yes"/>
      <point x="368.462" y="-159.013"/>
      <point x="357.795" y="-149.013"/>
      <point x="357.795" y="-129.013" type="curve" smooth="yes"/>
      <point x="357.795" y="95.6025" type="line"/>
      <point x="477.203" y="95.6025" type="line"/>
      <point x="477.203" y="-34.1924" type="line" smooth="yes"/>
      <point x="477.203" y="-47.8262"/>
      <point x="478.752" y="-53.1924"/>
      <point x="493.203" y="-53.1924" type="curve" smooth="yes"/>
    </contour>
    <component base="si_Sha"/>
  </outline>
</glyph>
<glyph name="si_TThI" format="1">
  <advance width="940"/>
  <outline>
    <contour>
      <point x="75.9961" y="-0.200195" type="line" smooth="yes"/>
      <point x="44.1328" y="-0.200195"/>
      <point x="32" y="19.6162"/>
      <point x="32" y="49.8008" type="curve" smooth="yes"/>
      <point x="32" y="140" type="line" smooth="yes"/>
      <point x="32" y="180.795"/>
      <point x="44.2734" y="195.065"/>
      <point x="58" y="202.801" type="curve"/>
      <point x="21.9971" y="202.801" type="line"/>
      <point x="21.9971" y="276.196" type="line"/>
      <point x="21.9971" y="276.196"/>
      <point x="97.4082" y="341.8"/>
      <point x="140.608" y="380.2" type="curve"/>
      <point x="140.608" y="381.798" type="line" smooth="yes"/>
      <point x="140.608" y="391.027"/>
      <point x="129.919" y="393.771"/>
      <point x="117.012" y="393.801" type="curve" smooth="yes"/>
      <point x="32" y="394" type="line"/>
      <point x="32" y="497" type="line"/>
      <point x="195.409" y="496.8" type="line" smooth="yes"/>
      <point x="227.092" y="496.762"/>
      <point x="231.005" y="469.59"/>
      <point x="231.005" y="461.397" type="curve" smooth="yes"/>
      <point x="231.005" y="459.197" type="line"/>
      <point x="240" y="466" type="line" smooth="yes"/>
      <point x="262.139" y="482.743"/>
      <point x="282.033" y="492.389"/>
      <point x="314" y="492.424" type="curve" smooth="yes"/>
      <point x="352.673" y="492.466"/>
      <point x="399.669" y="476.436"/>
      <point x="414" y="472" type="curve" smooth="yes"/>
      <point x="664" y="394" type="line"/>
      <point x="441" y="355" type="line"/>
      <point x="341" y="386.199" type="line" smooth="yes"/>
      <point x="333.187" y="388.637"/>
      <point x="324.741" y="389.834"/>
      <point x="317.999" y="389.83" type="curve" smooth="yes"/>
      <point x="306.721" y="389.824"/>
      <point x="297.777" y="386.631"/>
      <point x="288.601" y="378.6" type="curve" smooth="yes"/>
      <point x="261.407" y="354.8" type="line"/>
      <point x="341.4" y="354.8" type="line" smooth="yes"/>
      <point x="373.213" y="354.8"/>
      <point x="394.4" y="337.495"/>
      <point x="394.4" y="297.8" type="curve" smooth="yes"/>
      <point x="394.4" y="50.7998" type="line" smooth="yes"/>
      <point x="394.4" y="14.7539"/>
      <point x="371.045" y="-0.200195"/>
      <point x="341.4" y="-0.200195" type="curve" smooth="yes"/>
    </contour>
    <contour>
      <point x="664" y="287.399" type="line"/>
      <point x="577" y="287.399" type="line" smooth="yes"/>
      <point x="563" y="287.399"/>
      <point x="556" y="281.066"/>
      <point x="556" y="268.399" type="curve" smooth="yes"/>
      <point x="556" y="129" type="line" smooth="yes"/>
      <point x="556" y="114.333"/>
      <point x="562" y="107"/>
      <point x="574" y="107" type="curve" smooth="yes"/>
      <point x="752.199" y="107" type="line" smooth="yes"/>
      <point x="764.199" y="107"/>
      <point x="770.199" y="114.333"/>
      <point x="770.199" y="129" type="curve" smooth="yes"/>
      <point x="770.199" y="415" type="line"/>
      <point x="895" y="415" type="line"/>
      <point x="895" y="54" type="line" smooth="yes"/>
      <point x="895" y="16.2705"/>
      <point x="882.075" y="0"/>
      <point x="845" y="0" type="curve" smooth="yes"/>
      <point x="482" y="0" type="line" smooth="yes"/>
      <point x="444.928" y="0"/>
      <point x="432" y="16.2734"/>
      <point x="432" y="54" type="curve" smooth="yes"/>
      <point x="432" y="339.001" type="line" smooth="yes"/>
      <point x="432" y="375.668"/>
      <point x="450.667" y="394.001"/>
      <point x="488" y="394.001" type="curve" smooth="yes"/>
      <point x="663.998" y="394.001" type="line"/>
    </contour>
    <contour>
      <point x="600.197" y="466" type="line"/>
      <point x="490.199" y="466" type="line" smooth="yes"/>
      <point x="459.199" y="466"/>
      <point x="444.199" y="481"/>
      <point x="444.199" y="511" type="curve" smooth="yes"/>
      <point x="444.199" y="684" type="line" smooth="yes"/>
      <point x="444.199" y="714.667"/>
      <point x="462.538" y="736"/>
      <point x="500.199" y="736" type="curve" smooth="yes"/>
      <point x="895" y="736" type="line"/>
      <point x="895" y="660" type="line"/>
      <point x="541.199" y="660" type="line" smooth="yes"/>
      <point x="525.642" y="660"/>
      <point x="516.199" y="656.56"/>
      <point x="516.199" y="640" type="curve" smooth="yes"/>
      <point x="516.199" y="534" type="line" smooth="yes"/>
      <point x="516.199" y="518.212"/>
      <point x="522.299" y="516"/>
      <point x="534.199" y="516" type="curve" smooth="yes"/>
      <point x="600.199" y="516" type="line"/>
    </contour>
    <contour>
      <point x="273.6" y="242.8" type="line" smooth="yes"/>
      <point x="273.6" y="255.465"/>
      <point x="268.6" y="261.8"/>
      <point x="258.6" y="261.8" type="curve" smooth="yes"/>
      <point x="155" y="261.8" type="line"/>
      <point x="125.399" y="235.8" type="line"/>
      <point x="166.196" y="235.8" type="line"/>
      <point x="166.399" y="221.8" type="line"/>
      <point x="160.914" y="218.023"/>
      <point x="154.399" y="204.754"/>
      <point x="154.399" y="180.603" type="curve" smooth="yes"/>
      <point x="154.399" y="126.8" type="line" smooth="yes"/>
      <point x="154.399" y="109.466"/>
      <point x="157.06" y="106.8"/>
      <point x="168.399" y="106.8" type="curve" smooth="yes"/>
      <point x="260.6" y="106.8" type="line" smooth="yes"/>
      <point x="270.805" y="106.8"/>
      <point x="273.6" y="111.603"/>
      <point x="273.6" y="129.602" type="curve" smooth="yes"/>
    </contour>
    <contour>
      <point x="895.001" y="394" type="line"/>
      <point x="770.199" y="394" type="line"/>
      <point x="770.199" y="427.015" type="line"/>
      <point x="638.986" y="427.015" type="line" smooth="yes"/>
      <point x="605.694" y="427.015"/>
      <point x="593.203" y="437.986"/>
      <point x="593.203" y="474.4" type="curve" smooth="yes"/>
      <point x="593.203" y="539" type="line"/>
      <point x="547.809" y="539" type="line"/>
      <point x="547.809" y="626" type="line"/>
      <point x="829" y="626" type="line" smooth="yes"/>
      <point x="876.56" y="626"/>
      <point x="895.001" y="610.567"/>
      <point x="895.001" y="559" type="curve" smooth="yes"/>
    </contour>
    <contour>
      <point x="703.203" y="538" type="line"/>
      <point x="703.203" y="514.6" type="line" smooth="yes"/>
      <point x="703.203" y="496.191"/>
      <point x="710.605" y="496.015"/>
      <point x="724.986" y="496.015" type="curve" smooth="yes"/>
      <point x="768.199" y="496.015" type="line"/>
      <point x="768.2" y="522.001" type="line" smooth="yes"/>
      <point x="768.2" y="529.711"/>
      <point x="766.312" y="538"/>
      <point x="756" y="538" type="curve" smooth="yes"/>
    </contour>
  </outline>
</glyph>
<glyph name="si_Th.halant" format="1">
  <advance width="515"/>
  <outline>
    <contour>
      <point x="368.981" y="708" type="line"/>
      <point x="484.981" y="708" type="line"/>
      <point x="484.981" y="480" type="line"/>
      <point x="368.982" y="480" type="line"/>
    </contour>
    <contour>
      <point x="222.198" y="576" type="line"/>
      <point x="222.198" y="527.199" type="line" smooth="yes"/>
      <point x="222.198" y="508.791"/>
      <point x="229.601" y="508.614"/>
      <point x="243.981" y="508.614" type="curve" smooth="yes"/>
      <point x="359.381" y="508.614" type="line"/>
      <point x="359.381" y="511.211" type="line" smooth="yes"/>
      <point x="359.381" y="519.211"/>
      <point x="348.967" y="522.988"/>
      <point x="341.981" y="526" type="curve" smooth="yes"/>
      <point x="341.981" y="526"/>
      <point x="275.947" y="554.586"/>
      <point x="232.981" y="573" type="curve" smooth="yes"/>
      <point x="230.277" y="574.166"/>
      <point x="226.008" y="576"/>
      <point x="224.18" y="576" type="curve" smooth="yes"/>
    </contour>
    <contour>
      <point x="484.981" y="394" type="line"/>
      <point x="360.182" y="394" type="line"/>
      <point x="360.18" y="439.614" type="line"/>
      <point x="157.981" y="439.614" type="line" smooth="yes"/>
      <point x="124.689" y="439.614"/>
      <point x="112.198" y="450.586"/>
      <point x="112.198" y="487" type="curve" smooth="yes"/>
      <point x="112.198" y="577" type="line"/>
      <point x="61.1982" y="577" type="line"/>
      <point x="61.1982" y="664" type="line"/>
      <point x="183.981" y="664" type="line" smooth="yes"/>
      <point x="215.172" y="664"/>
      <point x="226.679" y="663.544"/>
      <point x="268.981" y="645" type="curve" smooth="yes"/>
      <point x="269.458" y="644.894"/>
      <point x="414.981" y="581"/>
      <point x="414.981" y="581" type="curve" smooth="yes"/>
      <point x="451.389" y="565.041"/>
      <point x="484.981" y="545.567"/>
      <point x="484.981" y="494" type="curve" smooth="yes"/>
    </contour>
    <contour>
      <point x="254" y="287.399" type="line"/>
      <point x="167" y="287.399" type="line" smooth="yes"/>
      <point x="153" y="287.399"/>
      <point x="146" y="281.066"/>
      <point x="146" y="268.399" type="curve" smooth="yes"/>
      <point x="146" y="129" type="line" smooth="yes"/>
      <point x="146" y="114.333"/>
      <point x="152" y="107"/>
      <point x="164" y="107" type="curve" smooth="yes"/>
      <point x="342.199" y="107" type="line" smooth="yes"/>
      <point x="354.199" y="107"/>
      <point x="360.199" y="114.333"/>
      <point x="360.199" y="129" type="curve" smooth="yes"/>
      <point x="360.199" y="415" type="line"/>
      <point x="485" y="415" type="line"/>
      <point x="485" y="54" type="line" smooth="yes"/>
      <point x="485" y="16.2705"/>
      <point x="472.075" y="0"/>
      <point x="435" y="0" type="curve" smooth="yes"/>
      <point x="72" y="0" type="line" smooth="yes"/>
      <point x="34.9277" y="0"/>
      <point x="22" y="16.2734"/>
      <point x="22" y="54" type="curve" smooth="yes"/>
      <point x="22" y="339.001" type="line" smooth="yes"/>
      <point x="22" y="375.668"/>
      <point x="40.667" y="394.001"/>
      <point x="78" y="394.001" type="curve" smooth="yes"/>
      <point x="253.998" y="394.001" type="line"/>
    </contour>
  </outline>
</glyph>
<glyph name="si_ThI" format="1">
  <advance width="515"/>
  <outline>
    <contour>
      <point x="189.998" y="448" type="line"/>
      <point x="80" y="448" type="line" smooth="yes"/>
      <point x="49" y="448"/>
      <point x="34" y="463"/>
      <point x="34" y="493" type="curve" smooth="yes"/>
      <point x="34" y="684" type="line" smooth="yes"/>
      <point x="34" y="714.667"/>
      <point x="52.3389" y="736"/>
      <point x="90" y="736" type="curve" smooth="yes"/>
      <point x="484.801" y="736" type="line"/>
      <point x="484.801" y="660" type="line"/>
      <point x="131" y="660" type="line" smooth="yes"/>
      <point x="115.442" y="660"/>
      <point x="106" y="656.559"/>
      <point x="106" y="640" type="curve" smooth="yes"/>
      <point x="106" y="516" type="line" smooth="yes"/>
      <point x="106" y="500.212"/>
      <point x="112.099" y="498"/>
      <point x="124" y="498" type="curve" smooth="yes"/>
      <point x="190" y="498" type="line"/>
    </contour>
    <component base="si_Tha"/>
  </outline>
</glyph>
<glyph name="si_TtVa" format="1">
  <advance width="919"/>
  <outline>
    <contour>
      <point x="528" y="355.008" type="line"/>
      <point x="331" y="386.199" type="line" smooth="yes"/>
      <point x="322.986" y="387.794"/>
      <point x="314.741" y="389.033"/>
      <point x="307.999" y="389.029" type="curve" smooth="yes"/>
      <point x="296.721" y="389.023"/>
      <point x="287.777" y="386.631"/>
      <point x="278.601" y="378.6" type="curve" smooth="yes"/>
      <point x="251.407" y="354.8" type="line"/>
      <point x="331.4" y="354.8" type="line" smooth="yes"/>
      <point x="363.213" y="354.8"/>
      <point x="384.4" y="337.495"/>
      <point x="384.4" y="297.8" type="curve" smooth="yes"/>
      <point x="384.4" y="50.7998" type="line" smooth="yes"/>
      <point x="384.4" y="14.7539"/>
      <point x="361.045" y="-0.200195"/>
      <point x="331.4" y="-0.200195" type="curve" smooth="yes"/>
      <point x="65.9961" y="-0.200195" type="line" smooth="yes"/>
      <point x="34.1328" y="-0.200195"/>
      <point x="22" y="19.6164"/>
      <point x="22" y="49.8008" type="curve" smooth="yes"/>
      <point x="22" y="140" type="line" smooth="yes"/>
      <point x="22" y="180.795"/>
      <point x="34.2732" y="195.065"/>
      <point x="48" y="202.801" type="curve"/>
      <point x="11.9971" y="202.801" type="line"/>
      <point x="11.9971" y="276.196" type="line"/>
      <point x="11.9971" y="276.196"/>
      <point x="87.4082" y="341.8"/>
      <point x="130.608" y="380.2" type="curve"/>
      <point x="130.608" y="381.798" type="line" smooth="yes"/>
      <point x="130.608" y="391.027"/>
      <point x="119.919" y="393.771"/>
      <point x="107.012" y="393.801" type="curve" smooth="yes"/>
      <point x="22" y="394" type="line"/>
      <point x="22" y="497" type="line"/>
      <point x="185.409" y="496.8" type="line" smooth="yes"/>
      <point x="217.092" y="496.762"/>
      <point x="221.005" y="469.59"/>
      <point x="221.005" y="461.397" type="curve" smooth="yes"/>
      <point x="221.005" y="459.197" type="line"/>
      <point x="230" y="466" type="line" smooth="yes"/>
      <point x="252.139" y="482.743"/>
      <point x="272.033" y="492.389"/>
      <point x="304" y="492.424" type="curve" smooth="yes"/>
      <point x="342.673" y="492.466"/>
      <point x="384.302" y="483.39"/>
      <point x="399" y="481" type="curve" smooth="yes"/>
      <point x="634.197" y="446.399" type="line"/>
    </contour>
    <contour>
      <point x="889" y="415" type="line"/>
      <point x="889" y="54" type="line" smooth="yes"/>
      <point x="889" y="16.2705"/>
      <point x="876.075" y="0"/>
      <point x="839" y="0" type="curve" smooth="yes"/>
      <point x="476" y="0" type="line" smooth="yes"/>
      <point x="438.928" y="0"/>
      <point x="426" y="16.2734"/>
      <point x="426" y="54" type="curve" smooth="yes"/>
      <point x="426" y="263.008" type="line" smooth="yes"/>
      <point x="426" y="299.675"/>
      <point x="444.667" y="318.008"/>
      <point x="482" y="318.008" type="curve" smooth="yes"/>
      <point x="548" y="318.008" type="line"/>
      <point x="548" y="340.397" type="line" smooth="yes"/>
      <point x="548" y="349.73"/>
      <point x="541.221" y="352.465"/>
      <point x="532" y="354.397" type="curve" smooth="yes"/>
      <point x="510" y="359.008" type="line"/>
      <point x="425.999" y="449.39" type="line"/>
      <point x="609" y="449.39" type="line" smooth="yes"/>
      <point x="650.705" y="449.39"/>
      <point x="671.999" y="427.8"/>
      <point x="671.999" y="391.39" type="curve" smooth="yes"/>
      <point x="671.999" y="224.008" type="line"/>
      <point x="571" y="224.008" type="line" smooth="yes"/>
      <point x="557" y="224.008"/>
      <point x="550" y="217.675"/>
      <point x="550" y="205.008" type="curve" smooth="yes"/>
      <point x="550" y="129" type="line" smooth="yes"/>
      <point x="550" y="114.333"/>
      <point x="556" y="107"/>
      <point x="568" y="107" type="curve" smooth="yes"/>
      <point x="747" y="107" type="line" smooth="yes"/>
      <point x="759" y="107"/>
      <point x="765" y="114.333"/>
      <point x="765" y="129" type="curve" smooth="yes"/>
      <point x="765" y="415" type="line"/>
    </contour>
    <contour>
      <point x="263.6" y="242.8" type="line" smooth="yes"/>
      <point x="263.6" y="255.465"/>
      <point x="258.6" y="261.8"/>
      <point x="248.6" y="261.8" type="curve" smooth="yes"/>
      <point x="145" y="261.8" type="line"/>
      <point x="115.399" y="235.8" type="line"/>
      <point x="156.196" y="235.8" type="line"/>
      <point x="156.399" y="221.8" type="line"/>
      <point x="150.914" y="218.023"/>
      <point x="144.399" y="204.754"/>
      <point x="144.399" y="180.603" type="curve" smooth="yes"/>
      <point x="144.399" y="126.8" type="line" smooth="yes"/>
      <point x="144.399" y="109.466"/>
      <point x="147.06" y="106.8"/>
      <point x="158.399" y="106.8" type="curve" smooth="yes"/>
      <point x="250.6" y="106.8" type="line" smooth="yes"/>
      <point x="260.805" y="106.8"/>
      <point x="263.6" y="111.603"/>
      <point x="263.6" y="129.602" type="curve" smooth="yes"/>
    </contour>
    <contour>
      <point x="820" y="625" type="line" smooth="yes"/>
      <point x="875" y="625"/>
      <point x="889" y="600.687"/>
      <point x="889" y="544" type="curve" smooth="yes"/>
      <point x="889" y="400" type="line"/>
      <point x="765" y="400" type="line"/>
      <point x="765" y="494.602" type="line" smooth="yes"/>
      <point x="765" y="512.95"/>
      <point x="758.062" y="517.602"/>
      <point x="739" y="517.602" type="curve" smooth="yes"/>
      <point x="426" y="517.602" type="line"/>
      <point x="426" y="625" type="line"/>
    </contour>
  </outline>
</glyph>
<glyph name="si_TthIi" format="1">
  <advance width="638"/>
  <outline>
    <contour>
      <point x="484.998" y="332" type="line"/>
      <point x="484.998" y="50" type="line" smooth="yes"/>
      <point x="484.998" y="19.6441"/>
      <point x="471.396" y="0"/>
      <point x="438" y="0" type="curve" smooth="yes"/>
      <point x="301.803" y="0" type="line" smooth="yes"/>
      <point x="275.803" y="0"/>
      <point x="259.469" y="12.333"/>
      <point x="252.803" y="37" type="curve"/>
      <point x="249.629" y="16.3779"/>
      <point x="229.072" y="0"/>
      <point x="205.803" y="0" type="curve" smooth="yes"/>
      <point x="69" y="0" type="line" smooth="yes"/>
      <point x="37.6094" y="0"/>
      <point x="22" y="15.0301"/>
      <point x="22" y="48" type="curve" smooth="yes"/>
      <point x="22" y="253.601" type="line" smooth="yes"/>
      <point x="22" y="292.155"/>
      <point x="40.0205" y="318.601"/>
      <point x="81" y="318.601" type="curve" smooth="yes"/>
      <point x="259.197" y="318.601" type="line"/>
      <point x="259.198" y="211" type="line"/>
      <point x="156" y="211" type="line" smooth="yes"/>
      <point x="149.064" y="211"/>
      <point x="146.004" y="207.292"/>
      <point x="146.004" y="201.199" type="curve" smooth="yes"/>
      <point x="146.004" y="126" type="line" smooth="yes"/>
      <point x="146.004" y="113.361"/>
      <point x="152.337" y="107"/>
      <point x="165.004" y="107" type="curve" smooth="yes"/>
      <point x="181.803" y="107" type="line" smooth="yes"/>
      <point x="196.469" y="107"/>
      <point x="203.803" y="115.333"/>
      <point x="203.803" y="132" type="curve" smooth="yes"/>
      <point x="203.803" y="170" type="line"/>
      <point x="303.398" y="170" type="line"/>
      <point x="303.398" y="134" type="line" smooth="yes"/>
      <point x="303.398" y="116"/>
      <point x="309.263" y="107"/>
      <point x="324.597" y="107" type="curve" smooth="yes"/>
      <point x="343.196" y="107" type="line" smooth="yes"/>
      <point x="356.103" y="107"/>
      <point x="361.197" y="115.673"/>
      <point x="361.197" y="126.799" type="curve" smooth="yes"/>
      <point x="361.201" y="332" type="line"/>
    </contour>
    <contour>
      <point x="191.8" y="373" type="line"/>
      <point x="82" y="373" type="line" smooth="yes"/>
      <point x="45.3535" y="373"/>
      <point x="32" y="394"/>
      <point x="32" y="424" type="curve" smooth="yes"/>
      <point x="32" y="614" type="line" smooth="yes"/>
      <point x="32" y="648.255"/>
      <point x="50.5791" y="672"/>
      <point x="95" y="672" type="curve" smooth="yes"/>
      <point x="445" y="672" type="line" smooth="yes"/>
      <point x="471.631" y="672"/>
      <point x="488" y="661.562"/>
      <point x="488" y="635" type="curve" smooth="yes"/>
      <point x="488" y="584" type="line" smooth="yes"/>
      <point x="488" y="557.302"/>
      <point x="474.291" y="547"/>
      <point x="444" y="547" type="curve" smooth="yes"/>
      <point x="260" y="546.998" type="line" smooth="yes"/>
      <point x="239.515" y="546.998"/>
      <point x="230" y="555.715"/>
      <point x="230" y="572" type="curve" smooth="yes"/>
      <point x="230" y="585" type="line"/>
      <point x="230" y="585" type="line"/>
      <point x="126" y="585" type="line" smooth="yes"/>
      <point x="108.851" y="585"/>
      <point x="104" y="575.513"/>
      <point x="104" y="561" type="curve" smooth="yes"/>
      <point x="104" y="442" type="line" smooth="yes"/>
      <point x="104" y="428.963"/>
      <point x="108.626" y="423"/>
      <point x="126" y="423" type="curve" smooth="yes"/>
      <point x="191.802" y="423" type="line"/>
    </contour>
    <contour>
      <point x="485.001" y="319" type="line"/>
      <point x="361.2" y="319" type="line"/>
      <point x="361.2" y="352.015" type="line"/>
      <point x="228.986" y="352.015" type="line" smooth="yes"/>
      <point x="195.694" y="352.015"/>
      <point x="183.203" y="362.986"/>
      <point x="183.203" y="399.4" type="curve" smooth="yes"/>
      <point x="183.203" y="464" type="line"/>
      <point x="137.809" y="464" type="line"/>
      <point x="137.809" y="551" type="line"/>
      <point x="419" y="551" type="line" smooth="yes"/>
      <point x="466.56" y="551"/>
      <point x="485.001" y="535.567"/>
      <point x="485.001" y="484" type="curve" smooth="yes"/>
    </contour>
    <contour>
      <point x="338" y="616" type="line" smooth="yes"/>
      <point x="328" y="616"/>
      <point x="323" y="612"/>
      <point x="323" y="604" type="curve" smooth="yes"/>
      <point x="323" y="583" type="line" smooth="yes"/>
      <point x="323" y="574.333"/>
      <point x="328.333" y="570"/>
      <point x="339" y="570" type="curve" smooth="yes"/>
      <point x="380" y="570" type="line" smooth="yes"/>
      <point x="390.667" y="570"/>
      <point x="396" y="574.667"/>
      <point x="396" y="584" type="curve" smooth="yes"/>
      <point x="396" y="604" type="line" smooth="yes"/>
      <point x="396" y="612"/>
      <point x="390.333" y="616"/>
      <point x="379" y="616" type="curve" smooth="yes"/>
    </contour>
    <contour>
      <point x="293.203" y="463" type="line"/>
      <point x="293.203" y="439.6" type="line" smooth="yes"/>
      <point x="293.203" y="421.191"/>
      <point x="300.605" y="421.015"/>
      <point x="314.986" y="421.015" type="curve" smooth="yes"/>
      <point x="359.2" y="421.015" type="line"/>
      <point x="359.201" y="447.001" type="line" smooth="yes"/>
      <point x="359.201" y="454.711"/>
      <point x="357.313" y="463"/>
      <point x="347.001" y="463" type="curve" smooth="yes"/>
    </contour>
  </outline>
</glyph>
